<?xml version="1.0" standalone="no"?>
<svg width="64" height="64" viewBox="0 0 512 384" version="1.1" xmlns="http://www.w3.org/2000/svg">
  <path d="M224 278c-25 0 -50 -10 -68 -28s-28 -43 -28 -68c0 -34 18 -66 48 -83l16 -10v-18v-71h64v71v18l16 10c15 8 27 20 35 34c9 15 13 31 13 49c0 25 -10 50 -28 68s-43 28 -68 28zM245 416v0v-64h-42v64h42zM374 362v0l30 -30l-38 -38l-30 30zM74 362v0l38 -38l-30 -30 l-38 38zM224 310v0c70 0 128 -58 128 -128c0 -48 -26 -89 -64 -111v-103h-128v103c-38 22 -64 64 -64 111c0 70 58 128 128 128zM448 203v0v-42h-64v42h64zM64 203v0v-42h-64v42h64z" transform="matrix(1,0,0,-1,0,384)"/>
</svg>