<?xml version="1.0" standalone="no"?>
<svg width="64" height="64" viewBox="0 0 288 384" version="1.1" xmlns="http://www.w3.org/2000/svg">
  <path d="M288 275c0 -31 -13 -59 -30 -83v0c-11 -15 -22 -28 -32 -45c-22 -38 -18 -73 -18 -82v-1h-128v1c0 7 3 44 -19 82c-10 17 -20 30 -31 45v0c-17 24 -30 52 -30 83c0 78 66 141 144 141s144 -63 144 -141zM239 194l6 8c16 22 27 47 27 73c0 33 -16 65 -40 89s-55 36 -88 36 s-64 -12 -88 -36s-40 -56 -40 -89c0 -26 11 -51 27 -73l19 -26v0c5 -6 9 -13 13 -21c17 -29 21 -58 21 -75h16v112l-32 64h17l31 -64v-112h32v112l31 64h17l-32 -64v-112h16c0 17 4 45 21 75c8 14 16 25 24 36c1 1 1 2 2 3zM112 -32v16h64v-16h-64zM96 0v16h96v-16h-96z M96 32v16h96v-16h-96z" transform="matrix(1,0,0,-1,0,384)"/>
</svg>