<?xml version="1.0" standalone="no"?>
<svg width="64" height="64" viewBox="0 0 384 384" version="1.1" xmlns="http://www.w3.org/2000/svg">
  <path d="M383 192l1 -1l-6 -6c-21 -21 -47 -48 -78 -69c-36 -24 -72 -36 -108 -36c-83 0 -130 49 -185 105l-7 7l1 1c39 40 67 64 94 81c32 20 63 30 97 30c83 0 146 -60 191 -112zM192 288c-62 0 -111 -36 -170 -96c24 -24 48 -50 76 -68c30 -20 60 -28 94 -28 c75 0 133 56 171 95c-26 29 -50 50 -74 66c-32 21 -64 31 -97 31zM192 112c-44 0 -80 36 -80 80s36 80 80 80s80 -36 80 -80s-36 -80 -80 -80zM192 256c-35 0 -64 -29 -64 -64s29 -64 64 -64s64 29 64 64s-29 64 -64 64zM224 192h16v0c0 -26 -22 -48 -48 -48s-48 21 -48 48 s22 48 48 48v-16c-16 0 -32 -13 -32 -31s15 -33 32 -33s32 14 32 32v0z" transform="matrix(1,0,0,-1,0,384)"/>
</svg>